<svg width="41" height="40" viewBox="0 0 41 40" fill="none" xmlns="http://www.w3.org/2000/svg">
<rect x="0.130859" width="40" height="40" rx="3.33333" fill="#9A292D"/>
<path fill-rule="evenodd" clip-rule="evenodd" d="M11.2574 17.798L10.9706 19.1732H9.71712C9.8124 18.718 9.90791 18.2299 10.0162 17.7642C10.0383 17.6631 10.0629 17.5597 10.0862 17.4469C10.0862 17.3671 10.0977 17.2877 10.1107 17.2081C10.1581 16.6518 9.74045 16.5491 9.33579 16.7198C9.09491 16.8106 8.9876 16.9691 8.86998 17.1743C8.76121 17.3561 8.72708 17.5258 8.67772 17.753L8.3671 19.1732H7.12488L7.85293 15.7884C8.23549 15.7769 8.61682 15.7655 9.00012 15.755C8.95298 15.9702 8.89307 16.1749 8.85722 16.3906C9.32376 15.8568 9.91847 15.5846 10.6129 15.7769C11.3053 15.9588 11.4497 16.6185 11.3404 17.2532C11.3269 17.4469 11.3053 17.6166 11.2574 17.798Z" fill="white"/>
<path fill-rule="evenodd" clip-rule="evenodd" d="M33.9123 14.2577H35.131L34.0442 19.1852H32.9225C32.9694 19.0034 33.0166 18.8224 33.0775 18.6392C32.8496 18.8446 32.6595 19.0143 32.4083 19.1287V18.3901C32.5039 18.3682 32.6006 18.3332 32.6831 18.2886C33.0428 18.0724 33.1838 17.6863 33.1838 17.3L33.1607 17.1072C33.1374 16.9263 33.0544 16.7661 32.8381 16.6763C32.7202 16.6074 32.5517 16.6074 32.4083 16.6307V15.7558C32.4793 15.7558 32.5392 15.7782 32.6006 15.7782C32.9463 15.8578 33.2437 16.0745 33.4131 16.4031L33.9123 14.2577ZM32.4083 19.1287C32.3254 19.1742 32.2308 19.1966 32.1211 19.2186C31.7888 19.2979 31.5953 19.3211 31.2496 19.1966C30.8445 19.0598 30.6421 18.7991 30.4867 18.4471C30.1284 17.5845 30.5211 16.3581 31.405 15.9377C31.6913 15.8009 32.0611 15.7225 32.4083 15.7558V16.6307C32.3133 16.6422 32.207 16.6763 32.1341 16.7211C31.9308 16.8464 31.7989 17.0278 31.7279 17.243C31.6454 17.4583 31.5953 17.7655 31.6683 17.9921C31.6913 18.106 31.7402 18.1868 31.8107 18.2538C31.9777 18.3901 32.207 18.424 32.4083 18.3901" fill="white"/>
<path fill-rule="evenodd" clip-rule="evenodd" d="M23.7845 15.841L23.534 16.5672C23.1883 16.4771 22.9361 16.4304 22.5789 16.4082C22.4703 16.4082 22.3888 16.3968 22.3056 16.4187C22.0531 16.4771 21.9454 16.6919 22.1371 16.8513C22.3751 17.078 22.7937 17.134 23.0921 17.3163C23.165 17.3625 23.2477 17.4304 23.3307 17.4984C23.5677 17.8502 23.534 18.225 23.2838 18.5892C22.8887 19.1445 22.1371 19.2015 21.4562 19.156C21.0859 19.1324 20.7751 19.0649 20.4043 18.997L20.6327 18.1791C21.0859 18.2934 21.3732 18.3959 21.8005 18.349C21.9932 18.338 22.2695 18.349 22.2695 18.1002C22.2206 17.9181 22.0421 17.8042 21.8498 17.7253C21.5645 17.6004 21.2536 17.521 21.027 17.3049C20.8937 17.1235 20.8571 16.9872 20.8571 16.7603C20.8571 16.5331 20.9305 16.3749 21.0378 16.2266C21.648 15.3986 22.9025 15.6367 23.7845 15.841Z" fill="white"/>
<path fill-rule="evenodd" clip-rule="evenodd" d="M16.7031 15.7595L17.9686 15.7371C17.8733 16.1575 17.7768 16.5774 17.6813 17.0195C17.6234 17.3036 17.5035 17.668 17.5875 17.9512C17.6359 18.1097 17.6929 18.1669 17.8498 18.2119C18.029 18.2693 18.2574 18.2348 18.4003 18.1325C18.829 17.838 18.9486 17.3489 19.0559 16.872L19.3186 15.7371H20.5493L19.7839 19.1781C19.4262 19.1888 19.0674 19.1667 18.6971 19.1781C18.7328 18.9841 18.7816 18.7003 18.829 18.5072C18.6971 18.6214 18.5906 18.7467 18.4469 18.8483C18.2684 18.9841 18.0526 19.0754 17.8262 19.1323C17.563 19.1888 17.2047 19.1888 16.9538 19.0864C16.6785 18.9841 16.4762 18.7467 16.3684 18.4846C16.2255 18.1325 16.2844 17.8949 16.3448 17.5308C16.4398 16.9409 16.5722 16.3389 16.7031 15.7595Z" fill="white"/>
<path fill-rule="evenodd" clip-rule="evenodd" d="M15.2936 14.2577H16.5123L15.414 19.1852H14.2908C14.3387 19.0034 14.3984 18.8224 14.4453 18.6392C14.2319 18.8446 14.0291 19.0143 13.7897 19.1287V18.3901C13.8857 18.3682 13.98 18.3332 14.0649 18.2886C14.4097 18.0724 14.5545 17.6863 14.5545 17.3L14.5408 17.1072C14.5177 16.9263 14.4222 16.7661 14.2093 16.6763C14.087 16.6074 13.9205 16.6074 13.7897 16.6307V15.7558C13.8496 15.7558 13.9075 15.7782 13.98 15.7782C14.3149 15.8578 14.6132 16.0745 14.7925 16.4031L15.2936 14.2577ZM13.7897 19.1287C13.6946 19.1742 13.5984 19.1966 13.5014 19.2186C13.1692 19.2979 12.9671 19.3211 12.6204 19.1966C12.2243 19.0598 12.0094 18.7991 11.8535 18.4471C11.5063 17.5845 11.9044 16.3581 12.7748 15.9377C13.0611 15.8009 13.443 15.7225 13.7897 15.7558V16.6307C13.6824 16.6422 13.5873 16.6763 13.5014 16.7211C13.3121 16.8464 13.1692 17.0278 13.0962 17.243C13.0137 17.4583 12.9671 17.7655 13.0363 17.9921C13.0611 18.106 13.1088 18.1868 13.1908 18.2538C13.36 18.3901 13.5733 18.424 13.7897 18.3901" fill="white"/>
<path fill-rule="evenodd" clip-rule="evenodd" d="M6.20513 14.2566H7.48271L6.42047 19.1732H5.13086" fill="white"/>
<path fill-rule="evenodd" clip-rule="evenodd" d="M29.9009 17.798L29.6011 19.1732H28.3356C28.4426 18.718 28.5499 18.2299 28.6464 17.7642C28.6702 17.6631 28.6953 17.5597 28.7307 17.4588C28.7307 17.3671 28.7307 17.2877 28.7412 17.2081C28.8026 16.6518 28.3577 16.5491 27.9648 16.7198C27.7379 16.8218 27.6306 16.9691 27.5118 17.1743C27.3932 17.3561 27.3563 17.5377 27.3207 17.753L26.9971 19.1732H25.7794L26.4844 15.7884C26.8652 15.7769 27.2502 15.7769 27.6306 15.755C27.5835 15.9702 27.5346 16.1749 27.4862 16.3906C27.9523 15.8568 28.5499 15.5846 29.2424 15.7769C29.936 15.9588 30.0799 16.6185 29.9844 17.2651C29.9599 17.4469 29.936 17.6166 29.9009 17.798Z" fill="white"/>
<path fill-rule="evenodd" clip-rule="evenodd" d="M24.7638 14.2566H26.0539L24.9917 19.1732H23.7001" fill="white"/>
<path fill-rule="evenodd" clip-rule="evenodd" d="M29.5586 24.2812L29.2608 25.6655H27.9947C28.0902 25.2005 28.2101 24.7007 28.3068 24.2462C28.3279 24.133 28.353 24.0315 28.3778 23.9173C28.3778 23.8377 28.3878 23.7584 28.4008 23.6776C28.4497 23.1213 28.019 23.0207 27.6119 23.1897C27.385 23.2819 27.2787 23.4404 27.1488 23.6451C27.0398 23.8267 27.0044 23.9976 26.9568 24.2238L26.6442 25.655H25.4025L26.1204 22.2478C26.5003 22.2364 26.8959 22.2249 27.2787 22.2137C27.2303 22.4292 27.1817 22.6458 27.1348 22.8501C27.5893 22.3162 28.2101 22.0436 28.8915 22.2249C29.607 22.4184 29.7383 23.0891 29.6431 23.725C29.6301 23.9173 29.5945 24.0875 29.5586 24.2812Z" fill="white"/>
<path fill-rule="evenodd" clip-rule="evenodd" d="M30.993 20.7056H32.2465L31.6012 23.6349L32.8682 22.2261H34.2767L32.7972 23.7822L33.7271 25.6445H32.3891L31.5666 23.8387L31.172 25.6445H29.9423" fill="white"/>
<path fill-rule="evenodd" clip-rule="evenodd" d="M25.1771 23.8413C25.0695 24.3296 24.9622 24.8065 24.865 25.2839L24.8183 25.6691H23.7792L23.8523 25.1471C23.6731 25.317 23.4808 25.4648 23.2785 25.5675V24.9769C23.2893 24.9655 23.3126 24.9655 23.336 24.9534C23.4693 24.8859 23.5653 24.8406 23.6358 24.7717C23.8035 24.6023 23.8879 24.342 23.9572 24.1254H23.7792C23.6257 24.1254 23.4447 24.1149 23.2785 24.1254V23.5577C23.5282 23.5353 23.8153 23.5458 24.1008 23.5458C24.1008 23.25 23.982 23.0243 23.6596 22.9568C23.5167 22.9335 23.3863 22.9335 23.2785 22.9335V22.2287C24.0549 22.1389 24.879 22.2633 25.1655 22.9335C25.3077 23.2736 25.2259 23.4893 25.1771 23.8413ZM23.2785 25.5675C23.087 25.6586 22.8711 25.716 22.6688 25.7375C22.2023 25.7825 21.7134 25.5792 21.5106 25.1698C21.3662 24.9424 21.4037 24.6933 21.4614 24.4326C21.5228 24.1828 21.6429 24.046 21.9508 23.8413C22.3935 23.6375 22.8257 23.5686 23.2785 23.5577V24.1254C23.0988 24.1368 22.9198 24.1828 22.8004 24.2626C22.562 24.4326 22.4675 24.7505 22.7282 24.9424C22.8837 25.0444 23.0988 25.0348 23.2785 24.9769V25.5675ZM23.2785 22.9335C23.1101 22.9335 22.9662 22.9444 22.7768 22.9904C22.562 23.0352 22.4066 23.1036 22.2023 23.1935L22.3457 22.3996C22.6339 22.3321 22.9416 22.2633 23.2785 22.2287" fill="white"/>
<path fill-rule="evenodd" clip-rule="evenodd" d="M19.0489 21.1047H19.7055C20.2801 21.1047 21.1633 21.184 21.3283 21.8199C21.3649 21.9221 21.3764 22.0234 21.3764 22.1255V22.1378C21.3764 22.5111 21.1869 22.8412 20.8286 23.0692C20.5769 23.1817 20.3635 23.2389 20.1126 23.3069C20.7562 23.4089 21.1758 23.8293 21.0435 24.4995C20.8507 25.4299 19.9324 25.5768 19.0489 25.6347V24.8176C19.0963 24.8176 19.1454 24.8055 19.1807 24.7936C19.9203 24.6804 20.0868 23.8629 19.3841 23.7158C19.2748 23.6925 19.1692 23.6801 19.0489 23.6925V22.9654C19.1923 22.9654 19.3477 22.9539 19.4781 22.9324C19.8732 22.8412 20.3974 22.4555 19.9672 22.0234C19.788 21.8432 19.3593 21.8652 19.0489 21.8876V21.1047ZM17.8548 21.1047H19.0489V21.8876H18.9411L18.6897 22.9539C18.7977 22.9539 18.9305 22.9654 19.0489 22.9654V23.6925C18.8814 23.6925 18.7022 23.7158 18.5352 23.7275L18.2845 24.862C18.4984 24.8506 18.7866 24.8506 19.0489 24.8176V25.6347C18.9765 25.6461 18.8954 25.6461 18.8205 25.6575H16.8868" fill="white"/>
</svg>
