<svg width="111" height="110" viewBox="0 0 111 110" fill="none" xmlns="http://www.w3.org/2000/svg">
<circle cx="55.1309" cy="55" r="52.9167" stroke="#DBE8FD" stroke-width="4.16667"/>
<mask id="path-2-inside-1_0_480" fill="white">
<path d="M55.1309 0C69.7178 1.73947e-07 83.7072 5.79463 94.0217 16.1091C104.336 26.4236 110.131 40.4131 110.131 55C110.131 69.5869 104.336 83.5764 94.0217 93.8909C83.7072 104.205 69.7178 110 55.1309 110V104.5C68.2591 104.5 80.8496 99.2848 90.1327 90.0018C99.4157 80.7187 104.631 68.1282 104.631 55C104.631 41.8718 99.4157 29.2813 90.1326 19.9982C80.8496 10.7152 68.2591 5.5 55.1309 5.5V0Z"/>
</mask>
<path d="M55.1309 0C69.7178 1.73947e-07 83.7072 5.79463 94.0217 16.1091C104.336 26.4236 110.131 40.4131 110.131 55C110.131 69.5869 104.336 83.5764 94.0217 93.8909C83.7072 104.205 69.7178 110 55.1309 110V104.5C68.2591 104.5 80.8496 99.2848 90.1327 90.0018C99.4157 80.7187 104.631 68.1282 104.631 55C104.631 41.8718 99.4157 29.2813 90.1326 19.9982C80.8496 10.7152 68.2591 5.5 55.1309 5.5V0Z" stroke="#1973E8" stroke-width="8.33333" mask="url(#path-2-inside-1_0_480)"/>
<path d="M43.4641 71.6667C42.5474 71.6667 41.7627 71.3403 41.1099 70.6875C40.4571 70.0347 40.1307 69.25 40.1307 68.3333V51.6667C40.1307 50.75 40.4571 49.9653 41.1099 49.3125C41.7627 48.6597 42.5474 48.3333 43.4641 48.3333H45.1307V45C45.1307 42.6944 45.9432 40.7292 47.5682 39.1042C49.1932 37.4792 51.1585 36.6667 53.4641 36.6667C55.7696 36.6667 57.7349 37.4792 59.3599 39.1042C60.9849 40.7292 61.7974 42.6944 61.7974 45V48.3333H63.4641C64.3807 48.3333 65.1655 48.6597 65.8182 49.3125C66.471 49.9653 66.7974 50.75 66.7974 51.6667V68.3333C66.7974 69.25 66.471 70.0347 65.8182 70.6875C65.1655 71.3403 64.3807 71.6667 63.4641 71.6667H43.4641ZM43.4641 68.3333H63.4641V51.6667H43.4641V68.3333ZM53.4641 63.3333C54.3807 63.3333 55.1655 63.0069 55.8182 62.3542C56.471 61.7014 56.7974 60.9167 56.7974 60C56.7974 59.0833 56.471 58.2986 55.8182 57.6458C55.1655 56.993 54.3807 56.6667 53.4641 56.6667C52.5474 56.6667 51.7627 56.993 51.1099 57.6458C50.4571 58.2986 50.1307 59.0833 50.1307 60C50.1307 60.9167 50.4571 61.7014 51.1099 62.3542C51.7627 63.0069 52.5474 63.3333 53.4641 63.3333ZM48.4641 48.3333H58.4641V45C58.4641 43.6111 57.978 42.4305 57.0057 41.4583C56.0335 40.4861 54.853 40 53.4641 40C52.0752 40 50.8946 40.4861 49.9224 41.4583C48.9502 42.4305 48.4641 43.6111 48.4641 45V48.3333Z" fill="#1973E8"/>
</svg>
