<svg width="69" height="24" viewBox="0 0 69 24" fill="none" xmlns="http://www.w3.org/2000/svg">
<path d="M8.93812 2.81464L8.29632 10.5748C8.19498 11.7557 9.47858 12.8353 11.1675 12.9703L20.7269 13.78C22.4159 13.915 23.8684 13.0715 23.9697 11.8906L24.6115 4.13049C24.7128 2.9496 23.4292 1.86993 21.7403 1.73497L12.1809 0.92522C10.4582 0.790262 9.00567 1.63375 8.93812 2.81464Z" fill="#FED13D"/>
<path d="M9.78257 4.80527L11.5053 13.1727C11.7755 14.4548 13.0591 15.2646 14.3765 14.9947L21.8416 13.4764C23.159 13.2065 24.0035 11.9581 23.767 10.676L22.0443 2.30853C21.7741 1.02642 20.4905 0.216668 19.1731 0.486586L11.708 2.00487C10.3568 2.30853 9.51234 3.5569 9.78257 4.80527Z" fill="#F16257"/>
<path d="M5.93182 8.24673L10.4244 16.9178C11.1 18.2337 12.8227 18.706 14.2414 17.9638L22.3145 13.78C23.7333 13.0378 24.3413 11.3845 23.6657 10.0687L19.1731 1.39758C18.4975 0.08173 16.7748 -0.390628 15.3561 0.351646L7.28297 4.53537C5.83048 5.27764 5.22246 6.93088 5.93182 8.24673Z" fill="#4458A7"/>
<path d="M1.57436 15.1634L10.2893 23.2272C11.6067 24.4418 13.8361 24.2056 15.2548 22.6536L23.3617 13.915C24.7804 12.363 24.8817 10.1362 23.5306 8.92153L14.8157 0.857742C13.4983 -0.356887 11.2689 -0.120705 9.85017 1.43132L1.74325 10.1699C0.324543 11.6882 0.256985 13.915 1.57436 15.1634Z" fill="#010101"/>
<path d="M14.7143 15.1296H14.5454C13.5321 15.0959 12.9916 15.1296 12.9916 14.0162V7.20078C12.9916 7.20078 13.0254 6.89713 12.6538 6.89713C12.1809 6.89713 11.6742 6.89713 11.2013 6.89713C10.9649 6.89713 10.796 6.99834 10.796 7.20078C10.796 7.43696 10.796 7.6394 10.796 7.87557C10.7622 8.78655 10.6271 9.42761 9.78262 9.49509C9.57995 9.49509 9.3435 9.49509 9.14083 9.49509C8.93815 9.49509 8.80304 9.5963 8.80304 9.79874V11.1146C8.80304 11.2833 8.90437 11.4182 9.07327 11.4182H10.2893C10.2893 12.3967 10.2893 13.3751 10.2893 14.3536C10.3231 15.0621 10.4582 15.6694 10.7284 16.0743C11.6405 17.3564 13.1943 17.1202 14.6806 17.154C14.8832 17.154 15.0183 17.019 15.0183 16.7829V15.5007C15.0521 15.2646 14.9508 15.1296 14.7143 15.1296Z" fill="white"/>
<path d="M15.0522 9.32642C14.3428 9.32642 13.8361 9.79877 13.8361 10.4398C13.8361 11.0809 14.3428 11.5532 15.0522 11.5532C15.7615 11.5532 16.2344 11.0471 16.2344 10.4398C16.2682 9.79877 15.7615 9.32642 15.0522 9.32642Z" fill="white"/>
<path d="M38.3933 10.1361L39.8458 13.2739C40.0485 13.7463 40.724 13.7126 40.9267 13.2739L42.1765 10.3386C42.3792 9.86623 43.0548 9.86623 43.2575 10.3386L44.5073 13.2739C44.71 13.7463 45.3855 13.7463 45.5882 13.2739L47.0069 10.1361C47.1082 9.93371 47.3109 9.79875 47.5474 9.79875H48.3581C48.7972 9.79875 49.0674 10.2374 48.8985 10.6422L45.5882 17.4577C45.3518 17.8963 44.71 17.8963 44.5073 17.4239L43.2575 14.5561C43.0548 14.0837 42.3792 14.0837 42.1765 14.5561L40.9267 17.4239C40.724 17.8963 40.0823 17.8963 39.8458 17.4577L36.5355 10.6422C36.3328 10.2374 36.6368 9.79875 37.0759 9.79875H37.8866C38.0893 9.79875 38.292 9.89997 38.3933 10.1361Z" fill="#010101"/>
<path d="M60.8225 3.75934H62.1736C62.3087 3.75934 62.4438 3.89429 62.4438 4.02925V17.6938C62.4438 17.8288 62.3087 17.9638 62.1736 17.9638H60.8225C60.6873 17.9638 60.5522 17.8288 60.5522 17.6938C60.5522 17.4577 60.282 17.3564 60.1131 17.4914C59.4713 17.9637 58.762 18.1999 58.0188 18.1999C56.9041 18.1999 55.9583 17.795 55.2152 16.9853C54.472 16.1418 54.1005 15.0959 54.1005 13.8475C54.1005 12.6329 54.472 11.6207 55.2152 10.7772C55.9583 9.96744 56.8703 9.52883 57.985 9.52883C58.7619 9.52883 59.4713 9.79874 60.1131 10.3048C60.282 10.4398 60.5522 10.3048 60.5522 10.1024V4.02925C60.5522 3.89429 60.6873 3.75934 60.8225 3.75934ZM56.0597 13.8475C56.0597 14.6235 56.2623 15.2646 56.7014 15.7707C57.1406 16.2768 57.681 16.5129 58.3228 16.5129C59.0322 16.5129 59.6064 16.2768 60.0118 15.8044C60.4509 15.2983 60.6536 14.6573 60.6536 13.915C60.6536 13.139 60.4509 12.4979 60.0118 12.0256C59.5726 11.5532 59.0322 11.2833 58.3228 11.2833C57.681 11.2833 57.1406 11.5195 56.7014 12.0256C56.2623 12.4979 56.0597 13.1052 56.0597 13.8475Z" fill="#010101"/>
<path d="M52.2765 10.7435V17.0528C52.2765 17.5589 51.8373 17.9975 51.3307 17.9975C50.824 17.9975 50.3848 17.5589 50.3848 17.0528V10.7435C50.3848 10.2374 50.824 9.79877 51.3307 9.79877C51.8711 9.79877 52.2765 10.2036 52.2765 10.7435Z" fill="#010101"/>
<path d="M50.0808 7.57193C50.0808 7.23453 50.2159 6.96462 50.4524 6.72844C50.6888 6.49226 50.9928 6.3573 51.3306 6.3573C51.6684 6.3573 51.9724 6.49226 52.2089 6.72844C52.4453 6.96462 52.5804 7.26828 52.5804 7.60567C52.5804 7.94307 52.4453 8.24673 52.2089 8.48291C51.9724 8.71908 51.6684 8.85405 51.3306 8.85405C51.0266 8.85405 50.6888 8.71909 50.4862 8.51665C50.1822 8.24673 50.0808 7.94307 50.0808 7.57193Z" fill="#010101"/>
<path d="M29.1379 10.5073C29.0366 10.5073 28.969 10.4398 28.969 10.3048V9.19144C28.969 8.78656 29.273 8.48291 29.6783 8.48291H29.9824C30.2864 8.48291 30.5228 8.24673 30.5228 7.94307V5.81747C30.5228 5.71625 30.5904 5.64877 30.7255 5.64877H32.8198C32.9549 5.64877 33.0225 5.71625 33.0225 5.81747V7.94307C33.0225 8.24673 33.2589 8.48291 33.5629 8.48291H34.9141C35.0492 8.48291 35.1167 8.55038 35.1167 8.6516V9.76501C35.1167 10.1699 34.779 10.5073 34.3736 10.5073H33.5629C33.2589 10.5073 33.0225 10.7435 33.0225 11.0471V14.6573C33.0225 15.0959 33.09 15.467 33.2251 15.7707C33.3602 16.0743 33.6643 16.2093 34.2047 16.2093C34.4749 16.2093 34.7452 16.1756 34.9816 16.1081C35.0154 16.1081 35.0492 16.0743 35.083 16.0743C35.1167 16.0743 35.1505 16.1081 35.1505 16.2093V17.2552C35.1505 17.6264 34.8803 17.9638 34.5087 17.9975C34.1372 18.0312 33.7994 18.065 33.4278 18.065C32.3806 18.065 31.6375 17.7951 31.2322 17.2215C30.793 16.6479 30.5904 15.7707 30.5904 14.5223V10.9796C30.5904 10.676 30.3539 10.4398 30.0499 10.4398H29.1379V10.5073Z" fill="#010101"/>
<path d="M64.1702 5.65578V3.20378H63.2451V2.90778H65.4076V3.20378H64.4826V5.65578H64.1702Z" fill="black"/>
<path d="M65.9638 5.65578V2.90778H66.2762L67.2973 4.82378L68.3185 2.90778H68.6309V5.65578H68.3185V3.57978L67.2973 5.49578L66.2762 3.57978V5.65578H65.9638Z" fill="black"/>
</svg>
