<svg width="41" height="40" viewBox="0 0 41 40" fill="none" xmlns="http://www.w3.org/2000/svg">
<rect x="0.130859" width="40" height="40" fill="white"/>
<path d="M15.0669 23.7095C15.9862 23.6919 16.3687 22.5164 15.6564 21.9374C15.5617 21.8602 15.4669 21.783 15.3687 21.7058C11.7895 18.8039 10.7262 19.4951 7.133 20.7373C7.00316 20.7829 7.0172 20.9654 7.15054 20.9935C8.22079 21.2181 9.26999 21.9128 10.6104 23.341L14.6984 23.6989C14.8213 23.7095 14.9406 23.713 15.0634 23.713L15.0669 23.7095Z" fill="#ED1F48"/>
<path d="M31.8961 9.25933L18.1759 22.9901C17.1723 23.9937 15.7757 24.5025 14.3616 24.3797L11.0806 24.0919L14.4914 27.3869C16.274 29.1098 19.1794 28.794 20.555 26.7342L32.0996 9.42426C32.1874 9.29092 32.0084 9.14354 31.8961 9.25582V9.25933Z" fill="#ED1F48"/>
</svg>
